<svg xmlns="http://www.w3.org/2000/svg" viewBox="0 0 500 500"><g id="freepik--background-simple--inject-14"><path d="M303.08,44.31a39.45,39.45,0,0,0-39.43-3.79C201.22,69.23-4.84,170.54,38.57,238.27c51,79.6,232,205.18,298.37,199.19S478.56,320.12,461.66,246.83C447.46,185.25,352,79.49,303.08,44.31Z" style="fill:#14AFE5"></path><path d="M303.08,44.31a39.45,39.45,0,0,0-39.43-3.79C201.22,69.23-4.84,170.54,38.57,238.27c51,79.6,232,205.18,298.37,199.19S478.56,320.12,461.66,246.83C447.46,185.25,352,79.49,303.08,44.31Z" style="fill:#fff;opacity:0.7000000000000001"></path></g><g id="freepik--Shadow--inject-14"><ellipse cx="249.56" cy="450.46" rx="77.36" ry="9.35" style="fill:#263238"></ellipse></g><g id="freepik--Gift--inject-14"><rect x="392.92" y="399.72" width="50.94" height="17.98" style="fill:none;stroke:#263238;stroke-linecap:round;stroke-linejoin:round"></rect><rect x="394.52" y="417.67" width="47.74" height="28.95" style="fill:none;stroke:#263238;stroke-linecap:round;stroke-linejoin:round"></rect><rect x="412.92" y="399.81" width="10.94" height="47.06" style="fill:none;stroke:#263238;stroke-linecap:round;stroke-linejoin:round"></rect><path d="M418,399.71s-5.47-11.5-11.88-10.18S402.93,400.28,418,399.71Z" style="fill:none;stroke:#263238;stroke-linecap:round;stroke-linejoin:round"></path><path d="M418.48,399.71s5.47-11.5,11.88-10.18S433.57,400.28,418.48,399.71Z" style="fill:none;stroke:#263238;stroke-linecap:round;stroke-linejoin:round"></path><path d="M432.74,375.38c.37,2.64-.95,5.47-4.91,7.17s-6-3-10.18,1.32.83,15.84.83,15.84,13.69-1.88,14.26,3.4-3.78,7.73-2.45,10.94,5.47.94,5.84-2.64" style="fill:none;stroke:#263238;stroke-linecap:round;stroke-linejoin:round"></path></g><g id="freepik--Coin--inject-14"><circle cx="427.82" cy="65.42" r="26.02" style="fill:none;stroke:#263238;stroke-linecap:round;stroke-linejoin:round"></circle><path d="M428,86.5V83c-2.9-.12-5.05-1.06-6.47-2.83s-2.2-4.28-2.34-7.54l5.39-1A18,18,0,0,0,425,75a4.85,4.85,0,0,0,1.2,2.34,2.93,2.93,0,0,0,2.17.82,2.51,2.51,0,0,0,2.17-.9,3.81,3.81,0,0,0,.65-2.3,6.07,6.07,0,0,0-1-3.66,17.16,17.16,0,0,0-2.68-2.87l-4.34-3.79a16.32,16.32,0,0,1-2.06-2.21,9.52,9.52,0,0,1-1.39-2.62,10.24,10.24,0,0,1-.51-3.39,8.06,8.06,0,0,1,2.19-6,8.77,8.77,0,0,1,5.9-2.38V44.65h1.82V48a7.87,7.87,0,0,1,3.54.95,6.58,6.58,0,0,1,2.21,2.11A9.77,9.77,0,0,1,436.08,54a16.51,16.51,0,0,1,.48,3.33l-5.31.93a19.69,19.69,0,0,0-.33-2.89,4.06,4.06,0,0,0-.95-2,2.43,2.43,0,0,0-2-.65,2.78,2.78,0,0,0-2.17.93,3.32,3.32,0,0,0-.74,2.23,5,5,0,0,0,.8,2.93,14.66,14.66,0,0,0,2,2.21l4.3,3.75a25.19,25.19,0,0,1,2.51,2.65,12.16,12.16,0,0,1,1.85,3.21,11.07,11.07,0,0,1,.69,4,8.93,8.93,0,0,1-.9,4.07,7.58,7.58,0,0,1-2.55,2.89,8.59,8.59,0,0,1-3.92,1.34V86.5Z" style="fill:#263238"></path></g><g id="freepik--People--inject-14"><circle cx="94.62" cy="56.46" r="8.61" transform="translate(-10.35 22.98) rotate(-13.13)" style="fill:none;stroke:#263238;stroke-linecap:round;stroke-linejoin:round"></circle><path d="M106.93,81.23C106.7,73.33,101.28,67,94.62,67s-12.07,6.33-12.3,14.23" style="fill:none;stroke:#263238;stroke-linecap:round;stroke-linejoin:round"></path><circle cx="114.42" cy="55.01" r="7.16" style="fill:none;stroke:#263238;stroke-linecap:round;stroke-linejoin:round"></circle><path d="M124.64,75.6C124.45,69,120,63.76,114.42,63.76a9.94,9.94,0,0,0-8.61,5.64" style="fill:none;stroke:#263238;stroke-linecap:round;stroke-linejoin:round"></path><circle cx="75.06" cy="55.01" r="7.16" style="fill:none;stroke:#263238;stroke-linecap:round;stroke-linejoin:round"></circle><path d="M64.84,75.6C65,69,69.53,63.76,75.06,63.76a10,10,0,0,1,8.62,5.64" style="fill:none;stroke:#263238;stroke-linecap:round;stroke-linejoin:round"></path></g><g id="freepik--Icon--inject-14"><circle cx="88.19" cy="412.39" r="26.02" transform="translate(-64.36 19.23) rotate(-9.14)" style="fill:none;stroke:#263238;stroke-linecap:round;stroke-linejoin:round"></circle><line x1="88.19" y1="397.75" x2="88.19" y2="427.03" style="fill:none;stroke:#263238;stroke-linecap:round;stroke-linejoin:round;stroke-width:4px"></line><line x1="102.83" y1="412.39" x2="73.55" y2="412.39" style="fill:none;stroke:#263238;stroke-linecap:round;stroke-linejoin:round;stroke-width:4px"></line></g><g id="freepik--Device--inject-14"><path d="M331.6,90.3V393.76a15.08,15.08,0,0,1-15.08,15.08H185.4a15.08,15.08,0,0,1-15.08-15.08V90.3a15.08,15.08,0,0,1,15.07-15.08h56.28l.05.18c1.4,5,4.63,8.33,8.21,8.33h2c3.59,0,6.82-3.29,8.22-8.33l.05-.18h56.27A15.08,15.08,0,0,1,331.6,90.3Z" style="fill:#fff;stroke:#263238;stroke-linecap:round;stroke-linejoin:round"></path><path d="M341.85,162.78V132.47h-2.74V93.67a23.92,23.92,0,0,0-23.92-23.92H186.72A23.92,23.92,0,0,0,162.8,93.67V402a23.92,23.92,0,0,0,23.92,23.92H315.19A23.92,23.92,0,0,0,339.11,402V188.61h2.74V170.7h-2.74v-7.92ZM331.6,384.92a23.93,23.93,0,0,1-23.92,23.92H194.24a23.92,23.92,0,0,1-23.92-23.92V99.14a23.92,23.92,0,0,1,23.92-23.92h47.43l.05.18c1.4,5,4.63,8.33,8.21,8.33h2c3.59,0,6.82-3.29,8.22-8.33l.05-.18h47.43A23.93,23.93,0,0,1,331.6,99.14Z" style="fill:#14AFE5;stroke:#263238;stroke-linecap:round;stroke-linejoin:round"></path><path d="M313.28,73.05H188.64a23.07,23.07,0,0,0-23.07,23.07V399.56a23.07,23.07,0,0,0,23.07,23.07H313.28a23.06,23.06,0,0,0,23.06-23.07V96.12A23.06,23.06,0,0,0,313.28,73.05ZM331.6,385.77a23.07,23.07,0,0,1-23.07,23.07H193.39a23.07,23.07,0,0,1-23.07-23.07V98.28a23.06,23.06,0,0,1,23.06-23.06h48.29l.05.18c1.4,5,4.63,8.33,8.21,8.33h2c3.59,0,6.82-3.29,8.22-8.33l.05-.18h48.28A23.07,23.07,0,0,1,331.6,98.29Z" style="fill:#263238;stroke:#263238;stroke-linecap:round;stroke-linejoin:round"></path><path d="M252.71,76.37a2.25,2.25,0,1,0-2.24,2.24A2.24,2.24,0,0,0,252.71,76.37Z" style="fill:#fff"></path><path d="M184.65,85c0,2.27-2.55,3.09-2.56,4.82v.12h2.48v.77h-3.31V90c0-2.43,2.55-2.91,2.55-5,0-.77-.25-1.18-.88-1.18s-.88.44-.88,1.11v.67h-.79V85c0-1.15.53-1.91,1.69-1.91S184.65,83.82,184.65,85Z" style="fill:#263238"></path><path d="M188.78,85v.19a1.48,1.48,0,0,1-.92,1.55,1.5,1.5,0,0,1,.92,1.57v.58c0,1.15-.54,1.9-1.7,1.9s-1.69-.75-1.69-1.9v-.52h.78v.57c0,.68.28,1.09.89,1.09s.88-.4.88-1.16v-.59c0-.74-.31-1.09-.95-1.12h-.45v-.75H187a.91.91,0,0,0,.91-1V85c0-.77-.27-1.17-.88-1.17s-.89.42-.89,1.1v.39h-.78V85c0-1.15.54-1.89,1.69-1.89S188.78,83.81,188.78,85Z" style="fill:#263238"></path><path d="M190.4,85.53v1h-.8v-1Zm0,4.1v1.05h-.8V89.63Z" style="fill:#263238"></path><path d="M192.11,86.21a1.2,1.2,0,0,1,1.12-.62c1,0,1.39.71,1.39,1.78v1.48c0,1.15-.54,1.9-1.7,1.9s-1.69-.75-1.69-1.9v-.51H192v.56c0,.68.28,1.09.88,1.09s.89-.41.89-1.09V87.44c0-.68-.28-1.09-.89-1.09a.82.82,0,0,0-.85.81v.17h-.78l.2-4.19h3v.75h-2.22Z" style="fill:#263238"></path><path d="M198.81,85v.14H198V84.9c0-.68-.28-1.08-.89-1.08s-.92.41-.92,1.22v1.69a1.21,1.21,0,0,1,1.22-.81c1,0,1.4.7,1.4,1.79v1.14c0,1.15-.58,1.9-1.73,1.9s-1.73-.75-1.73-1.9V85c0-1.19.54-1.93,1.73-1.93S198.81,83.8,198.81,85Zm-2.59,2.82V88.9c0,.68.28,1.09.89,1.09s.9-.41.9-1.09V87.77c0-.68-.29-1.09-.9-1.09S196.22,87.09,196.22,87.77Z" style="fill:#263238"></path><rect x="278.96" y="85.28" width="2.13" height="5.32" style="fill:#263238"></rect><rect x="281.8" y="84.22" width="2.13" height="6.39" style="fill:#263238"></rect><rect x="284.63" y="83.46" width="2.13" height="7.14" style="fill:#263238"></rect><rect x="287.47" y="82.14" width="2.13" height="8.46" style="fill:#263238"></rect><path d="M315.93,90.45H303.16v-7.8h12.77Zm-12.06-.7h11.35V83.36H303.87Z" style="fill:#263238"></path><rect x="304.94" y="84.13" width="6.74" height="4.84" style="fill:#263238"></rect><rect x="315.49" y="85.63" width="1.61" height="1.84" style="fill:#263238"></rect><path d="M298.48,88.76a.44.44,0,0,1-.24-.07c-2.6-1.54-4.32-.11-4.39,0a.47.47,0,0,1-.67,0,.48.48,0,0,1,0-.67c.1-.08,2.29-2,5.51,0a.47.47,0,0,1,.16.65A.49.49,0,0,1,298.48,88.76Z" style="fill:#263238"></path><path d="M299.44,87.15a.53.53,0,0,1-.24-.06c-3.76-2.24-6.28-.07-6.31,0a.48.48,0,0,1-.63-.72s3.08-2.64,7.43,0a.47.47,0,0,1,.16.65A.47.47,0,0,1,299.44,87.15Z" style="fill:#263238"></path><path d="M300.32,85.3a.45.45,0,0,1-.25-.07c-4.76-2.83-7.92-.16-8.05,0a.47.47,0,0,1-.67-.05.47.47,0,0,1,0-.67s3.8-3.24,9.17,0a.49.49,0,0,1,.17.66A.48.48,0,0,1,300.32,85.3Z" style="fill:#263238"></path><path d="M297.05,89.56a1.2,1.2,0,1,1-1.2-1.2A1.19,1.19,0,0,1,297.05,89.56Z" style="fill:#263238"></path></g><g id="freepik--Character--inject-14"><line x1="92.48" y1="130.51" x2="104.14" y2="130.51" style="fill:none;stroke:#263238;stroke-linecap:round;stroke-linejoin:round"></line><line x1="182.87" y1="130.51" x2="194.53" y2="130.51" style="fill:none;stroke:#263238;stroke-linecap:round;stroke-linejoin:round"></line><line x1="104.14" y1="99.9" x2="110.7" y2="105" style="fill:none;stroke:#263238;stroke-linecap:round;stroke-linejoin:round"></line><line x1="181.41" y1="99.9" x2="174.85" y2="105" style="fill:none;stroke:#263238;stroke-linecap:round;stroke-linejoin:round"></line><line x1="130.38" y1="87.51" x2="131.11" y2="98.44" style="fill:none;stroke:#263238;stroke-linecap:round;stroke-linejoin:round"></line><line x1="155.9" y1="88.96" x2="154.44" y2="98.44" style="fill:none;stroke:#263238;stroke-linecap:round;stroke-linejoin:round"></line><rect x="109.5" y="116.86" width="62.94" height="54.31" style="fill:#fff;stroke:#263238;stroke-linecap:round;stroke-linejoin:round"></rect><rect x="121" y="116.86" width="11.87" height="54.31" style="fill:#14AFE5;stroke:#263238;stroke-linecap:round;stroke-linejoin:round"></rect><rect x="144.85" y="116.86" width="27.59" height="54.31" style="fill:#fff;stroke:#263238;stroke-linecap:round;stroke-linejoin:round"></rect><path d="M136.53,112.43l-9.23-4a4,4,0,0,0-.68,0l-.15-.08h-9.29l7.24,3.4a9.66,9.66,0,0,0,.23,1.51,4.79,4.79,0,0,0,3.29,3.16l.06.29h1l16.07.22S140.91,114.64,136.53,112.43Z" style="fill:#14AFE5;stroke:#263238;stroke-linecap:round;stroke-linejoin:round"></path><path d="M135.79,116.86s-10-5.39-15.42-7.76-5.61,1.29-5,4.09,4.31,3.45,4.31,3.45Z" style="fill:#14AFE5;stroke:#263238;stroke-linecap:round;stroke-linejoin:round"></path><path d="M138.17,112.93h-3.53a3.82,3.82,0,0,0-3.83,3.83H142A3.83,3.83,0,0,0,138.17,112.93Z" style="fill:#14AFE5;stroke:#263238;stroke-linecap:round;stroke-linejoin:round"></path><path d="M160.23,108.39h-8.16l-1.06,4c-4.38,2.21-8.5,4.43-8.5,4.43l16.07-.22h1l.05-.29a4.79,4.79,0,0,0,3.3-3.16C163.42,110.87,163.36,108,160.23,108.39Z" style="fill:#14AFE5;stroke:#263238;stroke-linecap:round;stroke-linejoin:round"></path><path d="M132.87,116.86s10-5.39,15.43-7.76,5.6,1.29,4.95,4.09-4.31,3.45-4.31,3.45Z" style="fill:#14AFE5;stroke:#263238;stroke-linecap:round;stroke-linejoin:round"></path><path d="M111.55,175s-5.26-3.5-4.11-4.61,6.8,1.33,8.09,3,.64,2.79-.43,2.89S111.55,175,111.55,175Z" style="fill:#fff;stroke:#263238;stroke-linecap:round;stroke-linejoin:round"></path><path d="M116,170.92s-8.15-4.23-6.19-.32,6.84,7.5,8.8,8.48,12.72.65,12.72.65-2-3.59-3.92-4.57S116,170.92,116,170.92Z" style="fill:#fff;stroke:#263238;stroke-linecap:round;stroke-linejoin:round"></path><path d="M123.82,170.92s-10.76-5.86-11.09-3.58,8.48,9.78,11.41,11.08a21.1,21.1,0,0,0,7.18,1.31Z" style="fill:#fff;stroke:#263238;stroke-linecap:round;stroke-linejoin:round"></path><path d="M166.2,181s-3.91-9.13-6.85-10.43-29.34,1.3-29.34,1.3-12.72-10.43-11.74-5.22,9.13,11.42,11.41,13,19.24,1,19.24,1l5.22,4.89Z" style="fill:#fff;stroke:#263238;stroke-linecap:round;stroke-linejoin:round"></path><path d="M326.72,195.66a5.53,5.53,0,0,0-.46,3.84,9.44,9.44,0,0,0,2.3,3.37l.77,4.76,10.44.46-4.3-16Z" style="fill:#fff;stroke:#263238;stroke-linecap:round;stroke-linejoin:round"></path><path d="M319.63,166s4.35,28.3,5,30,5.66,3.7,7.41,2.83-1.31-5-1.31-5l.87-27.21S324.2,163.8,319.63,166Z" style="fill:#263238;stroke:#263238;stroke-linecap:round;stroke-linejoin:round"></path><path d="M331.82,174.9s-6.1-.43-6.32.66-.21,4.78.88,5.22,8.49,1.09,9.79.65a3.63,3.63,0,0,0,1.53-5C336.39,174.47,331.82,174.9,331.82,174.9Z" style="fill:#fff;stroke:#263238;stroke-linecap:round;stroke-linejoin:round"></path><path d="M331.82,181.87s-5.88,0-5.66,1.3-.44,4.14,2,4.58a29.33,29.33,0,0,0,8.7-.22,2.57,2.57,0,0,0,1.09-4.57C336.17,181.43,331.82,181.87,331.82,181.87Z" style="fill:#fff;stroke:#263238;stroke-linecap:round;stroke-linejoin:round"></path><path d="M322.37,183.54s-.75-5.48-2.52-5.33c-1.32.11-4.47,1.11-4.18,3.52a28.91,28.91,0,0,0,2.76,8.26,2.57,2.57,0,0,0,4.69-.3C324.07,187.58,322.37,183.54,322.37,183.54Z" style="fill:#fff;stroke:#263238;stroke-linecap:round;stroke-linejoin:round"></path><path d="M332.15,187.74s-5.32,0-5.12,1.26-.4,4,1.77,4.4a25.25,25.25,0,0,0,7.88-.21,2.52,2.52,0,0,0,1-4.4C336.09,187.33,332.15,187.74,332.15,187.74Z" style="fill:#fff;stroke:#263238;stroke-linecap:round;stroke-linejoin:round"></path><path d="M332.4,192.52s-4.45,0-4.28,1-.33,3.33,1.48,3.68a20.71,20.71,0,0,0,6.59-.17,2.11,2.11,0,0,0,.82-3.68C335.7,192.17,332.4,192.52,332.4,192.52Z" style="fill:#fff;stroke:#263238;stroke-linecap:round;stroke-linejoin:round"></path><path d="M318.42,137.34A14.89,14.89,0,0,0,307,161.72c2.73,3.29,7.2,5.65,11.46,5.38,13.06-.8,47.3,17.54,47.3,17.54V119.8S332,137.61,318.42,137.34Z" style="fill:#fff;stroke:#263238;stroke-linecap:round;stroke-linejoin:round"></path><path d="M315.76,152.75a18.61,18.61,0,0,1,9.72-16.35,30,30,0,0,1-7.06.94A14.89,14.89,0,0,0,307,161.72c2.73,3.29,7.2,5.65,11.46,5.38a21.1,21.1,0,0,1,4.52.31A18.56,18.56,0,0,1,315.76,152.75Z" style="fill:#14AFE5;stroke:#263238;stroke-linecap:round;stroke-linejoin:round"></path><circle cx="365.72" cy="152.22" r="32.42" transform="translate(131.31 471.55) rotate(-76.32)" style="fill:#fff;stroke:#263238;stroke-linecap:round;stroke-linejoin:round"></circle><path d="M393.35,152.22a27.64,27.64,0,1,1-27.64-27.63A27.65,27.65,0,0,1,393.35,152.22Z" style="fill:#a6a6a6;stroke:#263238;stroke-linecap:round;stroke-linejoin:round"></path><path d="M365.71,145.47V159l-21.26,10.89a27.68,27.68,0,0,1-4.15-28.49Z" style="fill:#fff;stroke:#263238;stroke-linecap:round;stroke-linejoin:round"></path><path d="M372.46,152.22a6.75,6.75,0,1,1-6.74-6.75A6.75,6.75,0,0,1,372.46,152.22Z" style="fill:#fff;stroke:#263238;stroke-linecap:round;stroke-linejoin:round"></path><polygon points="327.14 208.06 326.06 203.53 340.08 201.8 339.77 208.09 327.14 208.06" style="fill:#fff;stroke:#263238;stroke-linecap:round;stroke-linejoin:round"></polygon><polygon points="153.3 187.35 150.07 182.17 164.95 174.62 166.2 180.97 153.3 187.35" style="fill:#fff;stroke:#263238;stroke-linecap:round;stroke-linejoin:round"></polygon><path d="M243.75,179.86s-23.92-2.66-26-1.6-32.42,36.94-32.42,36.94L166.69,178,151,184.9s19.66,67,22.85,67.76,33.48-19.39,33.48-19.39l-1.86,26.57s5.58,22.32,30.3,26.57,39.32-14.88,42.51-21.26a129.12,129.12,0,0,0,6.11-15.67l11.43-33.75S328,242,335.16,245.22s13.81,6.12,14.61,4.52-7.17-44.11-7.17-44.11l-17,.8.8,6.64s-22.06-29-23.92-31.89-7.44-2.39-14.08-4.25S243.75,179.86,243.75,179.86Z" style="fill:#14AFE5;stroke:#263238;stroke-linecap:round;stroke-linejoin:round"></path><line x1="207.34" y1="233.27" x2="225.15" y2="219.98" style="fill:none;stroke:#263238;stroke-linecap:round;stroke-linejoin:round"></line><line x1="218.77" y1="225.03" x2="227.8" y2="223.43" style="fill:none;stroke:#263238;stroke-linecap:round;stroke-linejoin:round"></line><line x1="295.83" y1="215.73" x2="301.94" y2="194.2" style="fill:none;stroke:#263238;stroke-linecap:round;stroke-linejoin:round"></line><line x1="298.22" y1="208.82" x2="304.86" y2="199.52" style="fill:none;stroke:#263238;stroke-linecap:round;stroke-linejoin:round"></line><line x1="327.18" y1="228.54" x2="327.45" y2="233.8" style="fill:none;stroke:#263238;stroke-linecap:round;stroke-linejoin:round"></line><line x1="326.39" y1="213.07" x2="326.87" y2="222.54" style="fill:none;stroke:#263238;stroke-linecap:round;stroke-linejoin:round"></line><line x1="185.29" y1="215.2" x2="190.87" y2="226.89" style="fill:none;stroke:#263238;stroke-linecap:round;stroke-linejoin:round"></line><path d="M252.78,176.93l-11.69,2.13s-4.25,3.45-6.64,11.42a96.94,96.94,0,0,0-3.19,14.88l10.1.54-8,8s2.4,3.45,7.44,10.89a158.9,158.9,0,0,0,13,16L239,259.84s18.07-4,29.23-16.21S286,213.07,286,213.07l-8.77-6.91,9.3-1.86s1.86-15.14-8-25S252.78,176.93,252.78,176.93Z" style="fill:#14AFE5;stroke:#263238;stroke-linecap:round;stroke-linejoin:round"></path><path d="M279.09,183.31s-3.1,6.14-3.72,17.54c-.48,8.9-5.15,20.24-9.27,28.26-3.27,6.38-6.2,10.66-6.41,10,0,0-1.72-2.76-4.47-10.8-.67-1.92-1.39-4.16-2.17-6.75-4-13.29-7.44-34.81-5.85-39.06a48.69,48.69,0,0,1,2.66-6.11C262.62,193.67,279.09,183.31,279.09,183.31Z" style="fill:#fff;stroke:#263238;stroke-linecap:round;stroke-linejoin:round"></path><path d="M262.88,219.72l3.22,9.39c-3.27,6.38-6.2,10.66-6.41,10,0,0-1.72-2.76-4.47-10.8l4.47-8.07-4.44-8.31,5.24-5.25,7.17,7.18Z" style="fill:#263238;stroke:#263238;stroke-linecap:round;stroke-linejoin:round"></path><polyline points="251.72 215.73 260.49 206.69 271.17 216.77" style="fill:none;stroke:#263238;stroke-linecap:round;stroke-linejoin:round"></polyline><path d="M249.86,176.4a55.4,55.4,0,0,0,3.19,15.68,86.57,86.57,0,0,0,7.44,14.61L273,188.89S259.43,190.22,249.86,176.4Z" style="fill:none;stroke:#263238;stroke-linecap:round;stroke-linejoin:round"></path><path d="M287.87,148.24s3.8-.59,3.8,4.6-2.2,11.58-2.2,11.58Z" style="fill:#fff;stroke:#263238;stroke-linecap:round;stroke-linejoin:round"></path><path d="M286.53,129.1s2.66,24.18,2.92,31.36-.53,13.55-2.92,16.74-12,15.94-17,16.47-10.63-2.12-12.75-4-12.23-17.81-12.23-17.81-7.7-.53-9.56-10.63,8.5-7.7,8.5-7.7-5.58-8.77-6.11-17.27-2.13-11.7,20.73-12.23S286.53,129.1,286.53,129.1Z" style="fill:#fff;stroke:#263238;stroke-linecap:round;stroke-linejoin:round"></path><polyline points="274.57 146.11 280.95 168.16 271.12 165.24" style="fill:none;stroke:#263238;stroke-linecap:round;stroke-linejoin:round"></polyline><line x1="261.29" y1="162.58" x2="253.58" y2="164.18" style="fill:none;stroke:#263238;stroke-linecap:round;stroke-linejoin:round"></line><path d="M257.57,163.91a12.49,12.49,0,0,0,10.36,8.51c8.5,1.32,12.75-.27,12.75-.27" style="fill:none;stroke:#263238;stroke-linecap:round;stroke-linejoin:round"></path><path d="M259.69,168.16s-.26,13.29,4.52,13.82,3.72-9.56,3.72-9.56A22,22,0,0,1,259.69,168.16Z" style="fill:#263238;stroke:#263238;stroke-linecap:round;stroke-linejoin:round"></path><path d="M260.67,177.35c.65,2.42,1.74,4.43,3.54,4.63a2.55,2.55,0,0,0,2.4-1C265.68,179.35,262.47,178,260.67,177.35Z" style="fill:#fff;stroke:#263238;stroke-linecap:round;stroke-linejoin:round"></path><path d="M263,152.22c0,1.47-.65,2.66-1.46,2.66s-1.46-1.19-1.46-2.66.65-2.66,1.46-2.66S263,150.75,263,152.22Z" style="fill:#263238"></path><path d="M280.82,149.83c0,1.47-.66,2.66-1.47,2.66s-1.46-1.19-1.46-2.66.66-2.66,1.46-2.66S280.82,148.36,280.82,149.83Z" style="fill:#263238"></path><path d="M256.77,147.7a11.3,11.3,0,0,1,10.1-3.72" style="fill:none;stroke:#263238;stroke-linecap:round;stroke-linejoin:round"></path><path d="M275.37,142.92s3.45-6.38,9-3.19" style="fill:none;stroke:#263238;stroke-linecap:round;stroke-linejoin:round"></path><path d="M258.36,129.63s-8.23-1.33-6.37,1.07,6.11,5.31,4,7.17-7.44,5-7.17,6.64.79,8.24,0,9.84-2.66,1.86-4.52,1.59-4.52-5.05-5.58-6.38-10.63-10.89-8.77-18.6,21.79-13.82,21.79-13.82S264.47,102.8,273,102.53s5.31,7.71,5,8.5,12.22-.79,14.61,6.91,1.6,9.83-9.3,12.76S258.36,129.63,258.36,129.63Z" style="fill:#263238;stroke:#263238;stroke-linecap:round;stroke-linejoin:round"></path><polygon points="425.98 119.02 404.32 124.62 408.8 126.86 396.48 130.6 421.49 127.24 415.15 124.25 425.98 119.02" style="fill:#263238"></polygon><polygon points="430.42 171.75 408.51 167.22 411.55 171.2 398.84 169.12 422.77 177.14 418.39 171.66 430.42 171.75" style="fill:#263238"></polygon><polygon points="406.86 207.86 388.41 195.2 389.67 200.05 378.76 193.21 397.72 209.88 395.81 203.13 406.86 207.86" style="fill:#263238"></polygon></g><g id="freepik--Text--inject-14"><path d="M207.24,337.8V307.19h7.33a16.23,16.23,0,0,1,5.24.73,6,6,0,0,1,3.25,2.52,9,9,0,0,1,1.12,4.83,15.23,15.23,0,0,1-.34,3.33,6.5,6.5,0,0,1-1.16,2.52,5.21,5.21,0,0,1-2.25,1.6l4.27,15.08h-5.59l-3.7-14h-2.57v14Zm5.6-17.54h1.73a5.85,5.85,0,0,0,2.59-.47,2.7,2.7,0,0,0,1.38-1.51,7.16,7.16,0,0,0,.42-2.66,5.77,5.77,0,0,0-.85-3.46c-.57-.77-1.65-1.16-3.23-1.16h-2Z" style="fill:#14AFE5"></path><path d="M228.37,337.8V307.19h12.85v3.93H234v8.8h5.7v3.9H234V334h7.33v3.85Z" style="fill:#14AFE5"></path><path d="M244.55,337.8V307.19h12.59V311h-7V320h5.71v3.9h-5.71V337.8Z" style="fill:#14AFE5"></path><path d="M260.05,337.8V307.19H272.9v3.93h-7.26v8.8h5.71v3.9h-5.71V334H273v3.85Z" style="fill:#14AFE5"></path><path d="M276.23,337.8V307.19h7.33a16.16,16.16,0,0,1,5.23.73,6,6,0,0,1,3.26,2.52,9,9,0,0,1,1.11,4.83,14.64,14.64,0,0,1-.34,3.33,6.49,6.49,0,0,1-1.15,2.52,5.21,5.21,0,0,1-2.25,1.6l4.27,15.08h-5.6l-3.7-14h-2.57v14Zm5.59-17.54h1.74a5.88,5.88,0,0,0,2.59-.47,2.77,2.77,0,0,0,1.38-1.51,7.39,7.39,0,0,0,.41-2.66,5.77,5.77,0,0,0-.85-3.46c-.56-.77-1.64-1.16-3.23-1.16h-2Z" style="fill:#14AFE5"></path><path d="M183.94,377.16l6.12-30.61h6l6.13,30.61H197l-1.21-7.06h-5.33l-1.25,7.06ZM191,366.54h4.15l-2.08-12.85Z" style="fill:#14AFE5"></path><path d="M214.25,377.16V346.55h12.59v3.85h-7v8.92h5.7v3.9h-5.7v13.94Z" style="fill:#14AFE5"></path><path d="M229.75,377.16V346.55h7.33a16.27,16.27,0,0,1,5.24.73,6,6,0,0,1,3.25,2.52,9,9,0,0,1,1.11,4.83,15.27,15.27,0,0,1-.33,3.33,6.5,6.5,0,0,1-1.16,2.52,5.21,5.21,0,0,1-2.25,1.6l4.27,15.08h-5.59l-3.7-14h-2.57v14Zm5.6-17.53h1.73a5.84,5.84,0,0,0,2.59-.48,2.73,2.73,0,0,0,1.38-1.51,7.16,7.16,0,0,0,.42-2.66,5.86,5.86,0,0,0-.85-3.46c-.57-.77-1.65-1.16-3.23-1.16h-2Z" style="fill:#14AFE5"></path><path d="M251,377.16V346.55h5.52v30.61Z" style="fill:#14AFE5"></path><path d="M261.28,377.16V346.55h12.85v3.93h-7.26v8.8h5.71v3.9h-5.71v10.13h7.33v3.85Z" style="fill:#14AFE5"></path><path d="M277.45,377.16V346.55h3.9L288.79,364V346.55h4.62v30.61H289.7l-7.48-18.29v18.29Z" style="fill:#14AFE5"></path><path d="M298.05,377.16V346.55h7.22a13.65,13.65,0,0,1,5.85,1,6,6,0,0,1,3,3.13,14,14,0,0,1,.89,5.37v11.19a15,15,0,0,1-.89,5.54,6.18,6.18,0,0,1-3,3.29,12.4,12.4,0,0,1-5.65,1.07Zm5.6-3.89h1.7a4.41,4.41,0,0,0,2.76-.68,3,3,0,0,0,1-2,22.26,22.26,0,0,0,.19-3.2V355.69a13.27,13.27,0,0,0-.27-3A2.56,2.56,0,0,0,308,351a5.23,5.23,0,0,0-2.69-.53h-1.62Z" style="fill:#14AFE5"></path></g></svg>
